<?xml version="1.0" encoding="utf-8"?>
<!-- Generator: Adobe Illustrator 27.0.0, SVG Export Plug-In . SVG Version: 6.00 Build 0)  -->
<svg version="1.1" id="Layer_1" xmlns="http://www.w3.org/2000/svg" xmlns:xlink="http://www.w3.org/1999/xlink" x="0px" y="0px"
	 viewBox="0 0 610.71 585.02" style="enable-background:new 0 0 610.71 585.02;" xml:space="preserve">
<style type="text/css">
	.st0{enable-background:new    ;}
	.st1{opacity:0.7296;fill:#DB4437;}
	.st2{fill:none;stroke:#020072;stroke-width:3.4295;stroke-linecap:round;}
	.st3{opacity:0.669;fill:#4285F4;}
	.st4{opacity:0.5594;fill:#0F9D58;}
	.st5{opacity:0.6317;fill:#F4A000;}
	.st6{fill:none;stroke:#020072;stroke-width:3.4299;stroke-linecap:round;}
	.st7{fill:none;stroke:#F70000;stroke-width:4.1184;}
	.st8{fill:none;stroke:#0000DB;stroke-width:3.7836;}
	.st9{fill:none;stroke:#FF0000;stroke-width:1.7468;}
	.st10{fill:none;stroke:#0600E6;stroke-width:1.8236;}
	.st11{fill:none;stroke:#008900;stroke-width:2.0994;stroke-dasharray:12.5962,2.0994;}
	.st12{fill-rule:evenodd;clip-rule:evenodd;fill:#008900;}
	.st13{fill:none;stroke:#008900;stroke-width:0.7873;stroke-linejoin:round;}
	.st14{opacity:0.13;enable-background:new    ;}
	.st15{opacity:0.9461;clip-path:url(#SVGID_00000061456962212768718130000012364026301838444457_);fill:#2BE100;}
	.st16{opacity:0.9461;fill:#0000FF;}
	.st17{opacity:0.9461;fill:#FF0000;}
	.st18{fill:none;stroke:#008900;stroke-width:2.4342;stroke-dasharray:14.6052,2.4342;}
	.st19{fill:none;stroke:#008900;stroke-width:0.9128;stroke-linejoin:round;}
	.st20{fill:#009100;}
	.st21{font-family:'TeXGyreTermesMath-Regular';}
	.st22{font-size:34.8854px;}
	.st23{font-family:'DejaVuSans';}
	.st24{font-size:41.7284px;}
	.st25{fill:#FFFFFF;}
	.st26{font-family:'DejaVuSans-Bold';}
	.st27{font-size:30.0334px;}
	.st28{letter-spacing:-2;}
	.st29{font-family:'TeXGyreAdventor-Bold';}
	.st30{font-size:35.432px;}
	.st31{letter-spacing:-1;}
	.st32{font-size:34.273px;}
	.st33{font-size:33.222px;}
</style>
<g class="st0">
	<path class="st1" d="M418.91,16.68c-6.51,0.12-13.01,0.48-19.49,1.07c-9.16,0.83-18.27,2.11-27.29,3.85
		c-9.03,1.74-17.96,3.92-26.77,6.56c-8.81,2.63-17.48,5.7-25.98,9.2c-6.45,2.74-12.79,5.73-19.02,8.96
		c-1.98,0.91-3.96,1.84-5.92,2.79c-8.11,4.33-16,9.06-23.64,14.17c-7.64,5.12-15.02,10.61-22.1,16.47
		c-7.09,5.86-13.88,12.06-20.35,18.59c-6.47,6.53-12.61,13.38-18.39,20.53c-5.79,7.14-11.21,14.57-16.25,22.26
		c-5.04,7.69-9.7,15.62-13.95,23.77c-0.93,1.97-1.84,3.95-2.73,5.95c0.25-0.15,0.5-0.3,0.75-0.45c8.11-4.33,16.43-8.25,24.93-11.75
		c8.5-3.5,17.18-6.57,25.99-9.2c8.81-2.63,17.74-4.82,26.77-6.56c9.03-1.74,18.14-3.02,27.29-3.85c6.48-0.59,12.98-0.95,19.49-1.07
		c9.19-0.18,18.39,0.1,27.55,0.84c9.16,0.74,18.29,1.94,27.33,3.59c9.04,1.65,18,3.75,26.83,6.3c8.83,2.54,17.54,5.53,26.07,8.94
		c6.48,2.68,12.86,5.61,19.11,8.78c1.99,0.88,3.97,1.79,5.94,2.73c8.15,4.25,16.09,8.9,23.77,13.95
		c7.69,5.04,15.12,10.47,22.26,16.25c7.15,5.78,14,11.92,20.53,18.39c6.53,6.47,12.74,13.26,18.59,20.35
		c5.86,7.09,11.35,14.47,16.47,22.11c5.12,7.64,9.85,15.53,14.18,23.64c0.95,1.96,1.88,3.93,2.78,5.92
		c1.87-3.83,3.65-7.71,5.34-11.62c3.42-8.54,6.4-17.24,8.95-26.07c2.54-8.83,4.65-17.79,6.3-26.83c1.65-9.04,2.85-18.16,3.59-27.33
		c0.74-9.16,1.02-18.36,0.84-27.55c-0.12-6.51-0.48-13.01-1.07-19.49c-0.83-9.16-2.12-18.26-3.85-27.29
		c-1.74-9.03-3.93-17.96-6.56-26.77c-2.63-8.81-5.7-17.48-9.2-25.98c-3.5-8.5-7.41-16.83-11.75-24.94c-0.15-0.25-0.3-0.5-0.44-0.75
		c-6.25-3.17-12.63-6.09-19.11-8.78c-8.53-3.41-17.24-6.4-26.07-8.95c-8.84-2.54-17.79-4.65-26.84-6.3
		c-9.04-1.65-18.16-2.85-27.33-3.59C437.29,16.77,428.1,16.5,418.91,16.68z"/>
	<path class="st2" d="M418.91,16.68c-6.51,0.12-13.01,0.48-19.49,1.07c-9.16,0.83-18.27,2.11-27.29,3.85
		c-9.03,1.74-17.96,3.93-26.77,6.56c-8.81,2.63-17.48,5.7-25.98,9.2c-6.45,2.74-12.79,5.73-19.02,8.96
		c-1.98,0.91-3.96,1.84-5.92,2.79c-8.11,4.33-16,9.06-23.64,14.18c-7.64,5.12-15.02,10.61-22.11,16.46
		c-7.09,5.86-13.88,12.06-20.35,18.59c-6.47,6.53-12.61,13.38-18.39,20.53c-5.79,7.14-11.21,14.57-16.25,22.26
		c-5.04,7.69-9.7,15.62-13.95,23.77c-0.93,1.97-1.84,3.95-2.73,5.95c0.25-0.15,0.5-0.3,0.75-0.45c8.11-4.33,16.43-8.25,24.93-11.75
		c8.5-3.5,17.18-6.57,25.98-9.2c8.81-2.63,17.74-4.82,26.77-6.56c9.03-1.74,18.14-3.02,27.29-3.85c6.48-0.59,12.98-0.95,19.49-1.07
		c9.19-0.18,18.39,0.1,27.55,0.84c9.16,0.74,18.29,1.94,27.33,3.59c9.04,1.65,18,3.75,26.83,6.3c8.83,2.54,17.54,5.53,26.07,8.94
		c6.48,2.68,12.86,5.61,19.11,8.78c1.99,0.88,3.97,1.79,5.94,2.73c8.15,4.25,16.09,8.9,23.77,13.95
		c7.69,5.04,15.12,10.47,22.26,16.25c7.15,5.79,14,11.92,20.53,18.39c6.53,6.47,12.74,13.26,18.59,20.35
		c5.85,7.09,11.35,14.47,16.46,22.11c5.12,7.64,9.85,15.53,14.18,23.64c0.95,1.96,1.88,3.93,2.79,5.92
		c1.87-3.83,3.65-7.71,5.34-11.62c3.42-8.54,6.4-17.24,8.95-26.07c2.54-8.83,4.64-17.79,6.3-26.83c1.65-9.04,2.85-18.16,3.59-27.33
		c0.74-9.16,1.02-18.36,0.84-27.55c-0.13-6.51-0.48-13.01-1.07-19.49c-0.83-9.16-2.12-18.27-3.86-27.29
		c-1.74-9.03-3.93-17.96-6.56-26.77c-2.63-8.81-5.7-17.48-9.2-25.98c-3.5-8.5-7.41-16.82-11.75-24.94c-0.15-0.25-0.3-0.5-0.45-0.75
		c-6.25-3.17-12.63-6.09-19.11-8.78c-8.54-3.41-17.24-6.4-26.07-8.94c-8.84-2.54-17.79-4.65-26.84-6.3
		c-9.04-1.65-18.16-2.85-27.33-3.59C437.29,16.77,428.1,16.5,418.91,16.68z"/>
	<path class="st3" d="M180.95,21.3c-6.51,0.13-13.01,0.48-19.49,1.07c-9.16,0.83-18.26,2.11-27.29,3.85
		c-9.03,1.74-17.96,3.93-26.77,6.56c-8.81,2.63-17.48,5.7-25.98,9.2c-8.5,3.5-16.82,7.42-24.94,11.75c-0.25,0.15-0.5,0.3-0.75,0.45
		c-3.17,6.25-6.09,12.62-8.78,19.1c-3.41,8.54-6.4,17.24-8.94,26.07c-2.54,8.84-4.65,17.79-6.3,26.84
		c-1.65,9.04-2.85,18.16-3.59,27.33c-0.74,9.16-1.02,18.36-0.84,27.55c0.12,6.5,0.48,13,1.07,19.48c0.83,9.16,2.12,18.27,3.85,27.3
		c1.74,9.03,3.93,17.96,6.56,26.77c2.63,8.81,5.7,17.48,9.19,25.98c2.75,6.45,5.73,12.8,8.96,19.02c0.91,1.98,1.84,3.95,2.78,5.91
		c4.33,8.11,9.06,16,14.18,23.64c5.12,7.64,10.61,15.02,16.46,22.11c5.86,7.09,12.06,13.88,18.59,20.35
		c6.53,6.47,13.38,12.61,20.53,18.39c7.14,5.79,14.57,11.21,22.26,16.25c7.69,5.05,15.62,9.7,23.78,13.95
		c1.97,0.93,3.95,1.84,5.94,2.73c-0.15-0.25-0.3-0.5-0.45-0.75c-4.33-8.11-8.25-16.43-11.75-24.93c-3.5-8.5-6.57-17.18-9.2-25.98
		s-4.82-17.74-6.56-26.77c-1.74-9.03-3.02-18.14-3.86-27.29c-0.59-6.48-0.94-12.98-1.07-19.48c-0.18-9.2,0.11-18.39,0.84-27.55
		c0.74-9.16,1.94-18.28,3.59-27.33c1.65-9.04,3.75-18,6.3-26.83c2.54-8.83,5.53-17.54,8.95-26.07c2.68-6.48,5.61-12.85,8.77-19.11
		c0.89-1.99,1.8-3.97,2.73-5.95c4.25-8.15,8.91-16.09,13.95-23.77c5.04-7.69,10.46-15.12,16.25-22.26
		c5.78-7.14,11.92-14,18.39-20.53c6.47-6.54,13.26-12.74,20.35-18.59c7.09-5.85,14.46-11.35,22.1-16.47
		c7.64-5.12,15.53-9.85,23.64-14.17c1.96-0.95,3.94-1.88,5.92-2.79c-3.83-1.87-7.71-3.65-11.62-5.34
		c-8.54-3.41-17.24-6.4-26.07-8.95c-8.84-2.55-17.79-4.65-26.84-6.3c-9.04-1.65-18.16-2.85-27.33-3.59
		C199.33,21.4,190.14,21.12,180.95,21.3z"/>
	<path class="st2" d="M180.95,21.3c-6.51,0.13-13.01,0.48-19.49,1.07c-9.16,0.83-18.27,2.11-27.29,3.85
		c-9.03,1.74-17.96,3.93-26.77,6.56c-8.81,2.63-17.48,5.7-25.98,9.2c-8.5,3.5-16.82,7.42-24.94,11.75c-0.25,0.15-0.5,0.3-0.75,0.45
		c-3.17,6.25-6.09,12.63-8.78,19.1c-3.41,8.54-6.4,17.24-8.95,26.07c-2.54,8.84-4.65,17.79-6.3,26.84
		c-1.65,9.04-2.85,18.16-3.59,27.33c-0.74,9.16-1.02,18.36-0.84,27.55c0.13,6.5,0.48,13,1.07,19.48c0.83,9.16,2.12,18.27,3.86,27.3
		c1.74,9.03,3.93,17.96,6.56,26.77c2.63,8.81,5.7,17.48,9.19,25.98c2.75,6.45,5.73,12.8,8.96,19.02c0.91,1.98,1.84,3.95,2.79,5.91
		c4.33,8.11,9.06,16,14.18,23.64c5.12,7.64,10.61,15.02,16.46,22.11c5.86,7.09,12.06,13.88,18.59,20.35
		c6.53,6.47,13.38,12.61,20.53,18.39c7.15,5.79,14.57,11.21,22.26,16.25c7.69,5.05,15.62,9.7,23.78,13.95
		c1.97,0.93,3.95,1.84,5.94,2.73c-0.15-0.25-0.3-0.5-0.45-0.75c-4.33-8.11-8.25-16.43-11.75-24.93c-3.5-8.5-6.57-17.18-9.2-25.98
		c-2.63-8.81-4.82-17.74-6.56-26.77c-1.74-9.03-3.02-18.14-3.86-27.29c-0.59-6.48-0.94-12.98-1.07-19.48
		c-0.18-9.2,0.1-18.39,0.84-27.55c0.74-9.16,1.94-18.28,3.59-27.33c1.65-9.04,3.75-18,6.3-26.84c2.54-8.83,5.53-17.54,8.95-26.07
		c2.68-6.48,5.61-12.85,8.77-19.11c0.89-1.99,1.8-3.97,2.73-5.95c4.25-8.15,8.91-16.09,13.95-23.77
		c5.04-7.69,10.46-15.12,16.25-22.26c5.79-7.15,11.92-14,18.39-20.53c6.47-6.54,13.26-12.74,20.35-18.59
		c7.09-5.85,14.46-11.35,22.11-16.46c7.64-5.12,15.53-9.85,23.64-14.18c1.97-0.95,3.94-1.88,5.92-2.79
		c-3.83-1.87-7.71-3.65-11.62-5.34c-8.54-3.41-17.24-6.4-26.07-8.95c-8.84-2.55-17.79-4.65-26.84-6.3
		c-9.04-1.65-18.16-2.85-27.33-3.59C199.33,21.4,190.14,21.12,180.95,21.3z"/>
	<path class="st4" d="M56.91,299.63c-1.87,3.83-3.65,7.7-5.34,11.61c-3.41,8.54-6.4,17.24-8.94,26.07
		c-2.55,8.84-4.65,17.79-6.3,26.84c-1.65,9.04-2.85,18.16-3.59,27.33c-0.74,9.16-1.02,18.36-0.84,27.55c0.12,6.5,0.48,13,1.07,19.49
		c0.83,9.16,2.11,18.27,3.85,27.29c1.74,9.03,3.93,17.96,6.56,26.77c2.63,8.81,5.7,17.48,9.2,25.98c3.5,8.5,7.42,16.83,11.75,24.94
		c0.15,0.25,0.3,0.5,0.45,0.75c6.25,3.17,12.63,6.09,19.11,8.78c8.54,3.41,17.24,6.4,26.07,8.95c8.83,2.55,17.79,4.65,26.83,6.3
		c9.05,1.65,18.17,2.85,27.33,3.59c9.16,0.74,18.36,1.02,27.55,0.84c6.51-0.13,13.01-0.48,19.49-1.07
		c9.16-0.83,18.27-2.11,27.29-3.85c9.03-1.74,17.96-3.93,26.77-6.56c8.81-2.63,17.48-5.7,25.98-9.2c6.45-2.74,12.79-5.73,19.02-8.96
		c1.98-0.91,3.96-1.84,5.92-2.79c8.11-4.33,16-9.06,23.64-14.17c7.64-5.12,15.01-10.61,22.1-16.47
		c7.09-5.85,13.88-12.06,20.35-18.59c6.47-6.53,12.61-13.38,18.39-20.53c5.79-7.14,11.21-14.57,16.25-22.26s9.7-15.62,13.95-23.78
		c0.93-1.97,1.84-3.95,2.73-5.94c-0.25,0.15-0.5,0.3-0.74,0.45c-8.11,4.33-16.43,8.25-24.94,11.75c-8.5,3.5-17.17,6.57-25.98,9.2
		c-8.81,2.63-17.74,4.82-26.77,6.56c-9.03,1.74-18.14,3.02-27.3,3.85c-6.48,0.59-12.98,0.94-19.48,1.07
		c-9.19,0.18-18.39-0.11-27.55-0.84c-9.17-0.74-18.29-1.94-27.33-3.59c-9.05-1.65-18-3.75-26.84-6.3
		c-8.83-2.55-17.54-5.53-26.07-8.95c-6.48-2.68-12.85-5.61-19.11-8.77c-1.99-0.89-3.97-1.79-5.94-2.73
		c-8.15-4.25-16.09-8.91-23.78-13.95c-7.69-5.04-15.12-10.46-22.26-16.25c-7.15-5.79-14-11.93-20.53-18.39
		c-6.53-6.47-12.74-13.26-18.59-20.35c-5.85-7.09-11.35-14.46-16.46-22.11c-5.12-7.64-9.85-15.53-14.18-23.64
		C58.75,303.58,57.82,301.61,56.91,299.63z"/>
	<path class="st2" d="M56.91,299.63c-1.87,3.83-3.65,7.7-5.34,11.61c-3.41,8.54-6.4,17.24-8.94,26.07
		c-2.55,8.84-4.65,17.79-6.3,26.84c-1.65,9.04-2.85,18.16-3.59,27.33c-0.74,9.16-1.02,18.36-0.84,27.55c0.12,6.5,0.48,13,1.07,19.49
		c0.83,9.16,2.11,18.26,3.85,27.29c1.74,9.03,3.93,17.96,6.56,26.77c2.63,8.81,5.7,17.48,9.2,25.98c3.5,8.5,7.42,16.83,11.75,24.94
		c0.15,0.25,0.3,0.5,0.45,0.75c6.25,3.17,12.63,6.09,19.11,8.78c8.53,3.41,17.24,6.4,26.07,8.95c8.83,2.55,17.79,4.65,26.83,6.3
		c9.05,1.65,18.17,2.85,27.33,3.59c9.16,0.74,18.36,1.02,27.55,0.84c6.51-0.13,13.01-0.48,19.49-1.07
		c9.16-0.83,18.27-2.11,27.29-3.85c9.03-1.74,17.96-3.93,26.77-6.56c8.81-2.63,17.48-5.7,25.98-9.2c6.45-2.74,12.79-5.73,19.02-8.96
		c1.98-0.91,3.96-1.84,5.92-2.79c8.11-4.33,16-9.06,23.64-14.18c7.64-5.12,15.01-10.61,22.1-16.47
		c7.09-5.85,13.88-12.06,20.35-18.59c6.47-6.53,12.61-13.38,18.39-20.53c5.79-7.15,11.21-14.57,16.25-22.26
		c5.04-7.69,9.69-15.62,13.95-23.78c0.93-1.97,1.84-3.95,2.73-5.94c-0.25,0.15-0.5,0.3-0.74,0.45c-8.11,4.33-16.43,8.25-24.94,11.75
		c-8.5,3.5-17.17,6.57-25.98,9.2c-8.81,2.63-17.74,4.82-26.77,6.56c-9.03,1.74-18.14,3.02-27.3,3.85
		c-6.48,0.59-12.98,0.94-19.48,1.07c-9.19,0.18-18.39-0.11-27.55-0.84c-9.17-0.74-18.29-1.94-27.33-3.59
		c-9.05-1.65-18-3.75-26.84-6.3c-8.83-2.55-17.54-5.53-26.07-8.95c-6.48-2.68-12.85-5.61-19.11-8.77c-1.99-0.89-3.97-1.79-5.94-2.73
		c-8.15-4.25-16.09-8.91-23.78-13.95c-7.69-5.04-15.12-10.46-22.26-16.25c-7.15-5.79-14-11.93-20.53-18.39
		c-6.53-6.47-12.73-13.26-18.59-20.35c-5.85-7.09-11.35-14.46-16.46-22.11c-5.12-7.64-9.85-15.53-14.18-23.64
		C58.75,303.58,57.82,301.61,56.91,299.63z"/>
	<path class="st5" d="M429.13,166.42c0.15,0.25,0.3,0.5,0.45,0.74c4.33,8.11,8.25,16.44,11.75,24.94c3.5,8.5,6.57,17.17,9.2,25.98
		c2.63,8.81,4.82,17.74,6.56,26.77c1.74,9.03,3.03,18.14,3.86,27.3c0.59,6.48,0.94,12.98,1.07,19.49
		c0.18,9.19-0.11,18.39-0.84,27.55s-1.94,18.29-3.59,27.33c-1.65,9.05-3.75,18-6.3,26.84c-2.55,8.83-5.53,17.54-8.95,26.07
		c-2.68,6.48-5.61,12.86-8.78,19.11c-0.88,1.99-1.79,3.97-2.73,5.94c-4.25,8.15-8.9,16.09-13.95,23.78s-10.47,15.12-16.25,22.26
		c-5.79,7.15-11.92,14-18.39,20.53c-6.47,6.53-13.26,12.74-20.35,18.59c-7.09,5.85-14.46,11.35-22.1,16.47
		c-7.64,5.12-15.53,9.85-23.64,14.17c-1.96,0.95-3.93,1.88-5.92,2.79c3.83,1.87,7.71,3.65,11.62,5.33
		c8.54,3.41,17.24,6.4,26.07,8.95c8.83,2.54,17.79,4.65,26.83,6.3c9.05,1.65,18.17,2.85,27.33,3.59c9.16,0.74,18.36,1.02,27.55,0.84
		c6.51-0.12,13.01-0.48,19.49-1.07c9.16-0.83,18.27-2.11,27.29-3.85c9.03-1.74,17.96-3.92,26.77-6.56c8.81-2.63,17.48-5.7,25.98-9.2
		c8.5-3.5,16.82-7.42,24.93-11.75c0.25-0.15,0.5-0.3,0.75-0.45c3.17-6.26,6.09-12.63,8.78-19.11c3.41-8.54,6.4-17.24,8.95-26.07
		c2.54-8.83,4.65-17.79,6.29-26.83c1.65-9.04,2.85-18.16,3.59-27.33c0.74-9.16,1.02-18.36,0.84-27.55
		c-0.12-6.51-0.49-13.01-1.07-19.49c-0.83-9.16-2.11-18.27-3.85-27.29c-1.74-9.03-3.93-17.96-6.56-26.77
		c-2.63-8.81-5.7-17.48-9.2-25.98c-2.74-6.45-5.73-12.8-8.96-19.02c-0.91-1.98-1.83-3.96-2.78-5.92c-4.33-8.11-9.06-16-14.18-23.64
		c-5.11-7.64-10.61-15.02-16.47-22.11c-5.85-7.09-12.06-13.88-18.59-20.35c-6.53-6.47-13.38-12.61-20.53-18.39
		c-7.14-5.79-14.57-11.21-22.26-16.25c-7.69-5.04-15.62-9.7-23.77-13.95C433.11,168.21,431.12,167.3,429.13,166.42z"/>
	<path class="st6" d="M429.13,166.42c0.15,0.25,0.3,0.5,0.45,0.74c4.33,8.11,8.25,16.44,11.75,24.94c3.5,8.5,6.57,17.17,9.2,25.98
		c2.63,8.81,4.82,17.74,6.56,26.77c1.74,9.03,3.03,18.14,3.86,27.3c0.59,6.48,0.94,12.98,1.07,19.49
		c0.18,9.19-0.11,18.39-0.84,27.55c-0.74,9.16-1.94,18.29-3.59,27.33c-1.65,9.05-3.75,18-6.3,26.84
		c-2.55,8.83-5.53,17.54-8.95,26.07c-2.68,6.48-5.61,12.86-8.78,19.11c-0.88,1.99-1.79,3.97-2.73,5.94
		c-4.25,8.15-8.9,16.09-13.95,23.78c-5.04,7.69-10.47,15.12-16.25,22.26c-5.79,7.15-11.92,14-18.39,20.53
		c-6.47,6.53-13.26,12.74-20.35,18.59c-7.09,5.86-14.46,11.35-22.1,16.47c-7.64,5.12-15.53,9.85-23.64,14.18
		c-1.96,0.95-3.93,1.88-5.92,2.79c3.83,1.87,7.71,3.64,11.62,5.33c8.54,3.41,17.24,6.4,26.07,8.95c8.83,2.54,17.79,4.65,26.83,6.3
		c9.05,1.65,18.17,2.85,27.33,3.59c9.16,0.74,18.36,1.02,27.55,0.84c6.51-0.12,13.01-0.48,19.49-1.07
		c9.16-0.83,18.27-2.11,27.29-3.85c9.03-1.74,17.96-3.93,26.77-6.56c8.81-2.63,17.48-5.7,25.98-9.2c8.5-3.5,16.82-7.42,24.93-11.75
		c0.25-0.15,0.5-0.3,0.75-0.44c3.17-6.26,6.09-12.63,8.78-19.11c3.41-8.54,6.4-17.24,8.95-26.07c2.54-8.83,4.64-17.79,6.29-26.83
		c1.65-9.04,2.85-18.16,3.59-27.33c0.74-9.16,1.02-18.36,0.84-27.55c-0.12-6.51-0.48-13.01-1.07-19.49
		c-0.83-9.16-2.11-18.26-3.85-27.29c-1.74-9.03-3.93-17.96-6.56-26.77c-2.63-8.81-5.7-17.48-9.2-25.98
		c-2.74-6.45-5.73-12.8-8.96-19.02c-0.91-1.98-1.83-3.96-2.79-5.92c-4.33-8.11-9.06-16-14.18-23.64
		c-5.11-7.64-10.61-15.02-16.46-22.11c-5.85-7.09-12.06-13.88-18.59-20.35c-6.53-6.47-13.38-12.6-20.53-18.39
		c-7.14-5.79-14.57-11.21-22.26-16.25c-7.69-5.04-15.63-9.69-23.77-13.95C433.11,168.21,431.13,167.3,429.13,166.42z"/>
	<path class="st7" d="M203.97,422.66c0,0,64.56-46.24,102.98-46.1c37.8,0.14,100.88,46.1,100.88,46.1"/>
	<path class="st8" d="M203.97,202.06c0,0,64.56,46.24,102.98,46.1c37.8-0.14,100.88-46.1,100.88-46.1"/>
	<path class="st9" d="M316.3,388.61c0,4.87-4.43,8.81-9.89,8.81c-5.47,0-9.9-3.94-9.9-8.81s4.43-8.81,9.9-8.81
		C311.87,379.8,316.3,383.74,316.3,388.61z"/>
	<path class="st10" d="M316.3,235.11c0,4.87-4.43,8.81-9.89,8.81c-5.47,0-9.9-3.94-9.9-8.81c0-4.87,4.43-8.81,9.9-8.81
		C311.87,226.3,316.3,230.25,316.3,235.11z"/>
	<path class="st11" d="M317.9,359.29c33.08-34.1,37.12-66.17,0-94.83"/>
	<path class="st12" d="M329.59,354.58l-13.59,6.71l5.48-12.95C322.34,351.75,325.63,354.26,329.59,354.58z"/>
	<path class="st13" d="M329.59,354.58l-13.59,6.71l5.48-12.95C322.34,351.75,325.63,354.26,329.59,354.58z"/>
	<path class="st12" d="M323.17,274.87l-7.5-12.12l14.53,4.9C326.36,268.43,323.54,271.35,323.17,274.87z"/>
	<path class="st13" d="M323.17,274.87l-7.5-12.12l14.53,4.9C326.36,268.43,323.54,271.35,323.17,274.87z"/>
	<g class="st14">
		<g>
			<defs>
				<rect id="SVGID_1_" width="611" height="586"/>
			</defs>
			<clipPath id="SVGID_00000036247861162473738380000013177365442615626942_">
				<use xlink:href="#SVGID_1_"  style="overflow:visible;"/>
			</clipPath>
			<path style="opacity:0.9461;clip-path:url(#SVGID_00000036247861162473738380000013177365442615626942_);fill:#2BE100;" d="
				M352.04,311.01c0,32.44-19.78,58.74-44.19,58.74c-24.4,0-44.18-26.3-44.18-58.74c0-32.45,19.78-58.75,44.18-58.75
				C332.26,252.27,352.04,278.57,352.04,311.01z"/>
		</g>
	</g>
	<path class="st16" d="M316.3,264.77c0,4.87-4.43,8.81-9.89,8.81c-5.47,0-9.9-3.94-9.9-8.81c0-4.86,4.43-8.81,9.9-8.81
		C311.87,255.96,316.3,259.9,316.3,264.77z"/>
	<path class="st17" d="M316.3,357.21c0,4.87-4.43,8.81-9.89,8.81c-5.47,0-9.9-3.95-9.9-8.81c0-4.86,4.43-8.81,9.9-8.81
		C311.87,348.4,316.3,352.35,316.3,357.21z"/>
	<path class="st18" d="M294.21,359.29c-33.08-34.1-37.12-66.17,0-94.83"/>
	<path class="st12" d="M290.12,346.56l6.34,15.02l-15.76-7.78C285.25,353.48,289.04,350.55,290.12,346.56z"/>
	<path class="st19" d="M290.12,346.56l6.34,15.02l-15.76-7.78C285.25,353.48,289.04,350.55,290.12,346.56z"/>
	<path class="st12" d="M279.93,268.13l16.86-5.68l-8.7,14.05C287.71,272.45,284.41,269.09,279.93,268.13z"/>
	<path class="st19" d="M279.93,268.13l16.86-5.68l-8.7,14.05C287.71,272.45,284.41,269.09,279.93,268.13z"/>
	<text transform="matrix(1.1233 0 0 1 230.0439 306.9903)" class="st20 st21 st22">W</text>
	<text transform="matrix(1 0 0 1 215.2866 198.6044)"><tspan x="0" y="0" class="st23 st24">E</tspan><tspan x="26.37" y="0" class="st23 st24">x</tspan><tspan x="50.31" y="0" class="st23 st24">citons</tspan></text>
	<text transform="matrix(0.5532 -0.833 0.833 0.5532 66.1652 270.3959)"><tspan x="0" y="0" class="st25 st26 st27"> BIOM</tspan><tspan x="99.94" y="0" class="st25 st26 st27 st28">A</tspan><tspan x="120.84" y="0" class="st25 st26 st27">TERIALS</tspan></text>
	<text transform="matrix(0.9053 0.4248 -0.4248 0.9053 371.6422 62.0518)"><tspan x="0" y="0" class="st25 st29 st30"> </tspan><tspan x="7.51" y="0" class="st25 st29 st30 st31">A</tspan><tspan x="27.81" y="0" class="st25 st29 st30">T</tspan><tspan x="44.71" y="0" class="st25 st29 st30">OMIC</tspan></text>
	<text transform="matrix(0.9053 0.4248 -0.4248 0.9053 352.8263 102.1459)"><tspan x="0" y="0" class="st25 st29 st30">C</tspan><tspan x="20.55" y="0" class="st25 st29 st30">R</tspan><tspan x="39.12" y="0" class="st25 st29 st30">Y</tspan><tspan x="57.58" y="0" class="st25 st29 st30">S</tspan><tspan x="75.04" y="0" class="st25 st29 st30 st31">T</tspan><tspan x="91.27" y="0" class="st25 st29 st30">A</tspan><tspan x="112.96" y="0" class="st25 st29 st30">L</tspan><tspan x="130.21" y="0" class="st25 st29 st30">S</tspan></text>
	<text transform="matrix(0.8639 0.5036 -0.5036 0.8639 68.6928 418.7928)" class="st25 st29 st32">DISORDERED</text>
	<text transform="matrix(0.8639 0.5036 -0.5036 0.8639 47.1179 455.8048)"><tspan x="0" y="0" class="st25 st29 st32">  M</tspan><tspan x="42.09" y="0" class="st25 st29 st32 st31">A</tspan><tspan x="61.72" y="0" class="st25 st29 st32">TERIA</tspan><tspan x="143.22" y="0" class="st25 st29 st32">L</tspan><tspan x="159.92" y="0" class="st25 st29 st32">S</tspan></text>
	<text transform="matrix(0.5293 -0.8484 0.8484 0.5293 428.7429 523.0567)"><tspan x="0" y="0" class="st25 st29 st33">MOLECU</tspan><tspan x="122.39" y="0" class="st25 st29 st33">L</tspan><tspan x="138.9" y="0" class="st25 st29 st33">AR</tspan></text>
	<text transform="matrix(0.5293 -0.8484 0.8484 0.5293 463.9748 545.0396)"><tspan x="0" y="0" class="st25 st29 st33">   C</tspan><tspan x="40.4" y="0" class="st25 st29 st33">R</tspan><tspan x="57.8" y="0" class="st25 st29 st33">Y</tspan><tspan x="75.15" y="0" class="st25 st29 st33">S</tspan><tspan x="91.52" y="0" class="st25 st29 st33 st31">T</tspan><tspan x="106.74" y="0" class="st25 st29 st33">A</tspan><tspan x="127.07" y="0" class="st25 st29 st33">L</tspan><tspan x="143.25" y="0" class="st25 st29 st33">S</tspan></text>
</g>
</svg>
