<?xml version="1.0" encoding="utf-8"?>
<!-- Generator: Adobe Illustrator 27.0.0, SVG Export Plug-In . SVG Version: 6.00 Build 0)  -->
<svg version="1.1" id="Layer_1" xmlns="http://www.w3.org/2000/svg" xmlns:xlink="http://www.w3.org/1999/xlink" x="0px" y="0px"
	 viewBox="0 0 748.14 332" style="enable-background:new 0 0 748.14 332;" xml:space="preserve">
<style type="text/css">
	.st0{fill:#FFFFFF;}
	.st1{fill:none;stroke:#000000;stroke-width:0.8;stroke-linejoin:round;stroke-miterlimit:10;}
	
		.st2{clip-path:url(#SVGID_00000102510473032274782760000012906801237162411666_);fill:none;stroke:#000000;stroke-width:1.5;stroke-linecap:square;stroke-linejoin:round;stroke-miterlimit:10;}
	.st3{fill:none;stroke:#000000;stroke-width:0.8;stroke-linecap:square;stroke-miterlimit:10;}
	.st4{font-family:'CMR17';}
	.st5{font-size:24.9066px;}
	.st6{font-size:17.4346px;}
	.st7{font-family:'CMSY10';}
	.st8{font-family:'CMMI12';}
	.st9{letter-spacing:8;}
	.st10{letter-spacing:7;}
	.st11{font-size:28.8917px;}
</style>
<g>
	<polyline class="st0" points="123.99,291.38 741.2,291.38 741.2,11.8 123.99,11.8 	"/>
	<polyline points="152.05,151.59 203.06,151.59 203.06,151.59 152.05,151.59 	"/>
	<polyline points="224.91,151.59 275.92,151.59 275.92,278.67 224.91,278.67 	"/>
	<polyline points="297.79,151.59 348.8,151.59 348.8,24.51 297.79,24.51 	"/>
	<polyline points="370.65,151.59 421.66,151.59 421.66,278.67 370.65,278.67 	"/>
	<polyline points="443.53,151.59 494.53,151.59 494.53,151.59 443.53,151.59 	"/>
	<polyline points="516.4,151.59 567.41,151.59 567.41,24.51 516.4,24.51 	"/>
	<polyline points="589.26,151.59 640.27,151.59 640.27,24.51 589.26,24.51 	"/>
	<polyline points="662.14,151.59 713.15,151.59 713.15,151.59 662.14,151.59 	"/>
	<line x1="177.55" y1="291.38" x2="177.55" y2="294.88"/>
	<line class="st1" x1="177.55" y1="291.38" x2="177.55" y2="294.88"/>
	<line x1="250.42" y1="291.38" x2="250.42" y2="294.88"/>
	<line class="st1" x1="250.42" y1="291.38" x2="250.42" y2="294.88"/>
	<line x1="323.29" y1="291.38" x2="323.29" y2="294.88"/>
	<line class="st1" x1="323.29" y1="291.38" x2="323.29" y2="294.88"/>
	<line x1="396.16" y1="291.38" x2="396.16" y2="294.88"/>
	<line class="st1" x1="396.16" y1="291.38" x2="396.16" y2="294.88"/>
	<line x1="469.03" y1="291.38" x2="469.03" y2="294.88"/>
	<line class="st1" x1="469.03" y1="291.38" x2="469.03" y2="294.88"/>
	<line x1="541.9" y1="291.38" x2="541.9" y2="294.88"/>
	<line class="st1" x1="541.9" y1="291.38" x2="541.9" y2="294.88"/>
	<line x1="614.77" y1="291.38" x2="614.77" y2="294.88"/>
	<line class="st1" x1="614.77" y1="291.38" x2="614.77" y2="294.88"/>
	<line x1="687.64" y1="291.38" x2="687.64" y2="294.88"/>
	<line class="st1" x1="687.64" y1="291.38" x2="687.64" y2="294.88"/>
	<line x1="123.99" y1="278.67" x2="120.49" y2="278.67"/>
	<line class="st1" x1="123.99" y1="278.67" x2="120.49" y2="278.67"/>
	<line x1="123.99" y1="215.13" x2="120.49" y2="215.13"/>
	<line class="st1" x1="123.99" y1="215.13" x2="120.49" y2="215.13"/>
	<line x1="123.99" y1="151.59" x2="120.49" y2="151.59"/>
	<line class="st1" x1="123.99" y1="151.59" x2="120.49" y2="151.59"/>
	<line x1="123.99" y1="88.05" x2="120.49" y2="88.05"/>
	<line class="st1" x1="123.99" y1="88.05" x2="120.49" y2="88.05"/>
	<line x1="123.99" y1="24.51" x2="120.49" y2="24.51"/>
	<line class="st1" x1="123.99" y1="24.51" x2="120.49" y2="24.51"/>
	<g>
		<defs>
			<rect id="SVGID_1_" x="124" y="11.78" width="617.2" height="279.6"/>
		</defs>
		<clipPath id="SVGID_00000160185036123082585400000008674554334335357877_">
			<use xlink:href="#SVGID_1_"  style="overflow:visible;"/>
		</clipPath>
		
			<line style="clip-path:url(#SVGID_00000160185036123082585400000008674554334335357877_);fill:none;stroke:#000000;stroke-width:1.5;stroke-linecap:square;stroke-linejoin:round;stroke-miterlimit:10;" x1="123.99" y1="151.59" x2="741.2" y2="151.59"/>
	</g>
	<line class="st3" x1="123.99" y1="291.38" x2="123.99" y2="11.8"/>
	<path class="st3" d="M741.2,291.38V11.8 M123.99,291.38H741.2 M123.99,11.8H741.2"/>
	<text transform="matrix(1 0 0 1 164.5888 315.6869)" class="st4 st5">O</text>
	<text transform="matrix(1 0 0 1 182.4716 319.4057)" class="st4 st6">3</text>
	<text transform="matrix(1 0 0 1 233.6435 315.6791)" class="st4 st5">BN</text>
	<text transform="matrix(1 0 0 1 304.6122 315.5697)" class="st4 st5">Cu</text>
	<text transform="matrix(1 0 0 1 334.0185 319.4057)" class="st4 st6">2</text>
	<text transform="matrix(1 0 0 1 373.9872 315.6791)" class="st4 st5">Be</text>
	<text transform="matrix(1 0 0 1 400.3857 315.6791)" class="st4 st5">O</text>
	<text transform="matrix(1 0 0 1 443.7685 315.7104)" class="st4 st5">Mg</text>
	<text transform="matrix(1 0 0 1 476.2841 315.7104)" class="st4 st5">O</text>
	<text transform="matrix(1 0 0 1 510.2841 315.6791)" class="st4 st5">CuNC</text>
	<text transform="matrix(1 0 0 1 589.0028 315.6791)" class="st4 st5">NaCl</text>
	<text transform="matrix(1 0 0 1 666.12 315.6791)" class="st4 st5">Br</text>
	<text transform="matrix(1 0 0 1 691.3231 315.6791)" class="st4 st5">K</text>
	<text transform="matrix(1 0 0 1 45.1513 285.2729)" class="st7 st5">−</text>
	<text transform="matrix(1 0 0 1 64.4794 285.2729)" class="st4 st5">0</text>
	<text transform="matrix(1 0 0 1 75.8778 285.2729)" class="st8 st5">.</text>
	<text transform="matrix(1 0 0 1 82.5966 285.2729)" class="st4 st5">010</text>
	<text transform="matrix(1 0 0 1 45.1513 221.6166)" class="st7 st5">−</text>
	<text transform="matrix(1 0 0 1 64.4794 221.6166)" class="st4 st5">0</text>
	<text transform="matrix(1 0 0 1 75.8778 221.6166)" class="st8 st5">.</text>
	<text transform="matrix(1 0 0 1 82.5966 221.6166)" class="st4 st5">005</text>
	<text transform="matrix(1 0 0 1 64.5263 160.2338)" class="st4 st5">0</text>
	<text transform="matrix(1 0 0 1 75.9247 160.2338)" class="st8 st5">.</text>
	<text transform="matrix(1 0 0 1 82.6513 160.2338)" class="st4 st5">000</text>
	<text transform="matrix(1 0 0 1 64.5263 96.7025)" class="st4 st5">0</text>
	<text transform="matrix(1 0 0 1 75.9247 96.7025)" class="st8 st5">.</text>
	<text transform="matrix(1 0 0 1 82.6513 96.7025)" class="st4 st5">005</text>
	<text transform="matrix(1 0 0 1 64.5263 33.1557)" class="st4 st5">0</text>
	<text transform="matrix(1 0 0 1 75.9247 33.1557)" class="st8 st5">.</text>
	<text transform="matrix(1 0 0 1 82.6513 33.1557)" class="st4 st5">010</text>
	<text transform="matrix(0 -1 1 0 28.8232 255.4994)" class="st4 st5">∆(</text>
	<text transform="matrix(0 -1 1 0 28.8232 227.4213)" class="st4 st5">w</text>
	<text transform="matrix(0 -1 1 0 28.8232 210.3822)" class="st8 st5">.</text>
	<text transform="matrix(0 -1 1 0 28.8232 203.6557)" class="st4 st5">r</text>
	<text transform="matrix(0 -1 1 0 28.8232 194.7729)" class="st8 st5">.</text>
	<text transform="matrix(0 -1 1 0 28.8232 188.0541)" class="st4 st5 st9">tX</text>
	<text transform="matrix(0 -1 1 0 28.8232 153.7416)" class="st4 st5">TP</text>
	<text transform="matrix(0 -1 1 0 28.8232 121.4604)" class="st4 st5 st10">)(</text>
	<text transform="matrix(0 -1 1 0 28.8232 96.2572)" class="st4 st5">eV</text>
	<text transform="matrix(0 -1 1 0 28.8232 68.8979)" class="st4 st5">)</text>
	<text transform="matrix(1 0 0 1 130.1591 39.7572)" class="st4 st11">(b</text>
	<text transform="matrix(1 0 0 1 155.1278 39.7572)" class="st4 st11">)</text>
</g>
</svg>
